PathFileType	3	(X/Y/Z)	D:\Vicon Setup\UG\Test1\New Session\NewSession13.trc
DataRate	CameraRate	NumFrames	NumMarkers	Units	OrigDataRate	OrigDataStartFrame	OrigNumFrames
100.0	100.0	6	27	mm	100.0	455	333	
Frame#	Time	Sternum			LShoulder			RShoulder			LASIS			RASIS			RPSIS			LPSIS			RKneeLateral			RKneeMedial			RFibulaHead			RMidShank			RAnkleLateral			RAnkleMedial			RHeel			RMT5			RMT2			RToe			LKneeLateral			LKneeMedial			LFibulaHead			LMidShank			LAnkleLateral			LAnkleMedial			LHeel			LMT5			LMT2			LToe			
		X1	Y1	Z1	X2	Y2	Z2	X3	Y3	Z3	X4	Y4	Z4	X5	Y5	Z5	X6	Y6	Z6	X7	Y7	Z7	X8	Y8	Z8	X9	Y9	Z9	X10	Y10	Z10	X11	Y11	Z11	X12	Y12	Z12	X13	Y13	Z13	X14	Y14	Z14	X15	Y15	Z15	X16	Y16	Z16	X17	Y17	Z17	X18	Y18	Z18	X19	Y19	Z19	X20	Y20	Z20	X21	Y21	Z21	X22	Y22	Z22	X23	Y23	Z23	X24	Y24	Z24	X25	Y25	Z25	X26	Y26	Z26	X27	Y27	Z27	
455	4.54	-283.8959	1330.448	-2757.8608	-89.763878	1403.5312	-2840.0017	-455.60861	1371.1912	-2857.7166	-139.19933	952.16339	-2816.3123	-396.68903	966.62213	-2824.7131	-327.88098	982.03168	-2999	-197.1916	984.85559	-2995.9473	-427.16049	514.15149	-2726.1721	-296.04901	499.72906	-2693.8213	-431.68008	436.51657	-2700.5852	-350.37131	288.43158	-2624.741	-407.55624	83.473511	-2606.9956	-333.13022	128.06975	-2572.4036	-346.75995	53.048687	-2658.3	-442.62891	70.226204	-2449.9055	-380.07425	111.19895	-2461.2527	-381.68765	124.50229	-2420.8926	-121.64761	500.57071	-3006.8174	-249.64125	483.09274	-2991.9878	-119.40735	449.58463	-3048.2632	-203.39833	300.48077	-3093.9377	-155.71675	149.77434	-3249.5476	-237.69572	145.86346	-3202.6096	-215.91035	148.24774	-3324.4373	-106.59234	40.207787	-3162.0393	-169.25615	51.53368	-3133.2231	-173.31819	40.208485	-3109.759
456	4.55	-286.6412	1330.1331	-2741.8135	-92.274071	1403.2805	-2823.3411	-457.95837	1370.1383	-2842.7312	-141.11554	951.23413	-2799.2163	-398.47247	967.8548	-2808.3225	-329.11514	981.56268	-2982.8823	-198.218	983.44641	-2979.178	-430.01782	515.47565	-2708.2336	-300.08722	501.51514	-2674.3137	-434.64664	437.93295	-2683.9888	-352.49695	288.42175	-2612.6482	-409.07715	82.516571	-2600.9902	-334.50085	126.04157	-2565.0688	-347.62906	54.835052	-2655.9641	-442.00842	59.596115	-2444.6389	-380.42172	102.99355	-2454.3372	-381.61807	113.90351	-2412.8831	-121.33063	499.21609	-2988.0396	-248.76012	481.47009	-2973.5647	-118.52916	448.89902	-3030.6216	-202.39304	301.35724	-3080.5178	-155.12177	155.54918	-3241.0142	-236.85002	149.5367	-3193.7539	-216.46289	158.10176	-3314.7395	-106.42984	40.383434	-3160.4644	-169.32498	50.757267	-3131.2307	-173.24673	40.000832	-3109.1055
457	4.56	-289.36453	1330.517	-2725.7905	-94.44458	1403.8872	-2806.3586	-460.35059	1369.7214	-2827.6724	-143.02235	950.8418	-2782.438	-400.43259	969.95428	-2791.8733	-330.22302	981.77386	-2966.6819	-199.21193	982.59711	-2962.3916	-432.68839	517.97559	-2692.4321	-304.15271	504.1355	-2656.7112	-437.90848	440.05441	-2668.0667	-354.84521	288.5947	-2601.3125	-410.83493	81.85865	-2598.0979	-335.99066	124.51362	-2559.6316	-348.2662	55.962303	-2654.6067	-442.87631	51.162632	-2441.8865	-382.06055	96.199463	-2449.592	-383.39175	104.94456	-2407.53	-120.60994	498.01288	-2967.5645	-247.29367	479.93658	-2953.4624	-117.48537	448.4313	-3011.2927	-201.15262	302.32553	-3064.854	-155.13684	161.59274	-3230.4055	-236.03476	153.26402	-3182.5483	-217.47342	169.11223	-3302.4753	-106.41587	40.946026	-3158.6162	-169.50546	50.355263	-3128.2532	-173.58571	39.977238	-3107.8623
458	4.57	-291.91589	1331.4952	-2709.9692	-96.577454	1405.1404	-2789.4832	-462.5296	1369.855	-2812.4675	-145.05214	950.93939	-2765.8811	-402.43842	972.8313	-2775.4087	-331.18985	982.75885	-2950.2407	-200.14078	982.35852	-2945.6514	-436.02106	520.96692	-2676.6521	-307.52667	506.14429	-2642.033	-441.20605	442.16879	-2652.2913	-357.38797	288.76562	-2591.1826	-412.15833	81.478531	-2596.1975	-337.67624	124.27017	-2556.3899	-348.88043	56.743511	-2653.7273	-444.21524	44.852055	-2439.8142	-384.40332	91.356239	-2446.0032	-385.65146	98.564011	-2403.5779	-119.33253	496.6597	-2945.3237	-245.63821	478.11316	-2931.1067	-116.11286	448.19974	-2990.2246	-199.61009	303.39972	-3047.1548	-155.14453	168.36867	-3217.825	-235.10689	157.14763	-3169.272	-219.03395	181.47141	-3287.469	-106.68262	42.170326	-3156.3848	-169.91792	50.304302	-3124.2292	-174.33051	40.117073	-3105.5854
459	4.58	-294.23645	1332.9181	-2694.3098	-98.483917	1407.0391	-2772.7271	-464.77191	1370.5999	-2797.2585	-147.12286	951.30231	-2749.7305	-404.3718	976.12146	-2758.8489	-332.15213	984.51654	-2933.6218	-201.21771	982.65491	-2929.0332	-440.39804	523.44824	-2659.1665	-310.70422	508.6705	-2629.2375	-444.27832	443.68094	-2637.3171	-360.07312	288.98685	-2581.7854	-413.4046	82.006378	-2595.0176	-338.53043	124.24822	-2553.7708	-349.30963	57.396805	-2653.052	-444.71677	40.372761	-2437.4216	-385.522	87.286629	-2443.0779	-385.99353	92.922745	-2399.7961	-117.71489	495.07162	-2921.5935	-243.55322	475.7222	-2906.7852	-114.48618	447.89111	-2967.4856	-197.81735	304.46442	-3027.7615	-155.51547	175.61989	-3203.0625	-234.18788	161.3055	-3154.2495	-220.93648	194.82838	-3269.3777	-107.19273	44.344509	-3153.0303	-170.72374	50.273178	-3120.0007	-175.22992	39.498795	-3103.2244
460	4.59	-296.31546	1334.5742	-2678.8494	-100.75047	1409.1772	-2756.9399	-466.71939	1371.8745	-2781.8687	-149.58942	952.36847	-2733.7017	-406.15555	979.58618	-2742.428	-333.39072	986.69934	-2917.0815	-202.50958	983.43512	-2912.7336	-444.29153	525.24353	-2642.1077	-314.66861	511.75046	-2617.1245	-446.88293	444.56705	-2624.0862	-362.3624	288.86154	-2573.4102	-413.68124	82.317993	-2592.9517	-338.75882	123.84167	-2551.4631	-349.88791	58.036995	-2652.5249	-444.30151	37.400105	-2434.8972	-384.49524	83.888023	-2439.9634	-384.26501	87.846062	-2396.3027	-116.14503	493.30774	-2896.6523	-240.98355	472.52081	-2879.9595	-113.02612	447.54721	-2943.3186	-195.79556	305.43851	-3006.5737	-155.64775	183.78867	-3186.5439	-233.13033	165.92628	-3137.665	-222.77098	209.1955	-3248.5156	-107.74429	47.723335	-3149.0476	-170.73027	50.647186	-3114.7229	-175.40938	38.883228	-3099.8801
